<?xml version="1.0" encoding="UTF-8"?>
<svg id="Layer_1" data-name="Layer 1" xmlns="http://www.w3.org/2000/svg" viewBox="0 0 200 200">
  <defs>
    <style>
      .cls-1 {
        fill: #e05326;
        stroke: #e05326;
      }

      .cls-1, .cls-2 {
        stroke-miterlimit: 10;
      }

      .cls-2 {
        fill: #2a6d8c;
        stroke: #2a6d8c;
      }
    </style>
  </defs>
  <path class="cls-1" d="M103.05,177.47s-.21-25.97.84-29.74c0,0,2.51-15.71,10.89-23.46,0,0,13.41-12.15,18.64-14.66,0,0,3.77-3.56,1.47,7.75,0,0-3.56,9.22-7.33,11.73,0,0-5.86,6.28-6.7,7.96,0,0,9.01-2.72,14.87-10.68,0,0,7.33-9.63,10.05-20.74,0,0,.63-9.84-3.98-18.85,0,0,13.61,5.03,11.1,30.37,0,0-.21,20.32-20.11,35.82,0,0-20.74,15.29-29.74,24.51Z"/>
  <path class="cls-2" d="M96.38,177.64s.21-25.97-.84-29.74c0,0-2.51-15.71-10.89-23.46,0,0-13.41-12.15-18.64-14.66,0,0-3.77-3.56-1.47,7.75,0,0,3.56,9.22,7.33,11.73,0,0,5.86,6.28,6.7,7.96,0,0-9.01-2.72-14.87-10.68,0,0-7.33-9.63-10.05-20.74,0,0-.63-9.84,3.98-18.85,0,0-13.61,5.03-11.1,30.37,0,0,.21,20.32,20.11,35.82,0,0,20.74,15.29,29.74,24.51Z"/>
  <path class="cls-2" d="M41.59,126.82s-5.06-24.83,3.99-36.94c0,0,10.27-15.63,28.2-14.41,0,0,20.39,1.23,25.44,9.5,0,0-4.14-18.85-29.43-21.76,0,0-20.39-3.22-32.8,18.39,0,0-10.05,22.33,4.6,45.22Z"/>
  <path class="cls-1" d="M159.6,126.6s5.06-24.83-3.99-36.94c0,0-10.27-15.63-28.2-14.41,0,0-20.39,1.23-25.44,9.5,0,0,4.14-18.85,29.43-21.76,0,0,20.39-3.22,32.8,18.39,0,0,10.05,22.33-4.6,45.22Z"/>
  <rect class="cls-2" x="88.87" y="90.33" width="11.31" height="11.31"/>
  <rect class="cls-2" x="102.12" y="90.36" width="11.31" height="11.31"/>
  <rect class="cls-2" x="88.94" y="103.78" width="11.31" height="11.31"/>
  <rect class="cls-2" x="102.23" y="103.79" width="11.31" height="11.31"/>
  <ellipse class="cls-2" cx="68.41" cy="44.23" rx="17.39" ry="16.62"/>
  <ellipse class="cls-1" cx="133.1" cy="43.81" rx="17.39" ry="16.62"/>
</svg>