<svg width="177" height="75" viewBox="0 0 177 75" fill="none" xmlns="http://www.w3.org/2000/svg">
<path d="M30.7899 68.5C30.7899 68.5 30.7099 57.55 31.1499 55.96C31.1499 55.96 32.2199 49.33 35.7999 46.06C35.7999 46.06 41.5199 40.94 43.7499 39.88C43.7499 39.88 45.3499 38.37 44.3799 43.15C44.3799 43.15 42.8599 47.04 41.2499 48.1C41.2499 48.1 38.7499 50.75 38.3999 51.46C38.3999 51.46 42.2399 50.31 44.7299 46.95C44.7299 46.95 47.8599 42.89 49.0199 38.2C49.0199 38.2 49.2899 34.05 47.3199 30.25C47.3199 30.25 53.1199 32.37 52.0499 43.06C52.0499 43.06 51.9699 51.63 43.4799 58.17C43.4799 58.17 34.6399 64.61 30.7999 68.5H30.7899Z" fill="white"/>
<path d="M27.9303 68.5699C27.9303 68.5699 28.0103 57.6199 27.5703 56.0299C27.5703 56.0299 26.5003 49.3999 22.9203 46.1299C22.9203 46.1299 17.2003 41.0099 14.9703 39.9499C14.9703 39.9499 13.3703 38.4399 14.3403 43.2199C14.3403 43.2199 15.8603 47.1099 17.4703 48.1699C17.4703 48.1699 19.9703 50.8199 20.3203 51.5299C20.3203 51.5299 16.4803 50.3799 13.9903 47.0199C13.9903 47.0199 10.8603 42.9599 9.7003 38.2699C9.7003 38.2699 9.4303 34.1199 11.4003 30.3199C11.4003 30.3199 5.6003 32.4399 6.6703 43.1299C6.6703 43.1299 6.7503 51.6999 15.2403 58.2399C15.2403 58.2399 24.0803 64.6799 27.9203 68.5699H27.9303Z" fill="white"/>
<path d="M4.58007 47.13C4.58007 47.13 2.43007 36.66 6.28007 31.54C6.28007 31.54 10.6601 24.94 18.3001 25.46C18.3001 25.46 26.9901 25.98 29.1401 29.47C29.1401 29.47 27.3801 21.52 16.6001 20.28C16.6001 20.28 7.91007 18.93 2.62007 28.04C2.62007 28.04 -1.66993 37.46 4.58007 47.11V47.13Z" fill="white"/>
<path d="M54.8901 47.05C54.8901 47.05 57.0401 36.58 53.1901 31.46C53.1901 31.46 48.8101 24.86 41.1701 25.38C41.1701 25.38 32.4801 25.9 30.3301 29.39C30.3301 29.39 32.0901 21.44 42.8701 20.2C42.8701 20.2 51.5601 18.85 56.8501 27.96C56.8501 27.96 61.1401 37.38 54.8901 47.03V47.05Z" fill="white"/>
<path d="M29.5602 31.74H24.7402V36.51H29.5602V31.74Z" fill="white"/>
<path d="M35.1999 31.75H30.3799V36.52H35.1999V31.75Z" fill="white"/>
<path d="M29.59 37.42H24.77V42.19H29.59V37.42Z" fill="white"/>
<path d="M35.2599 37.42H30.4399V42.19H35.2599V37.42Z" fill="white"/>
<path d="M16.0201 19.31C20.1181 19.31 23.4401 16.1715 23.4401 12.3C23.4401 8.42846 20.1181 5.28998 16.0201 5.28998C11.9221 5.28998 8.6001 8.42846 8.6001 12.3C8.6001 16.1715 11.9221 19.31 16.0201 19.31Z" fill="white"/>
<path d="M43.5899 19.12C47.6879 19.12 51.0099 15.9815 51.0099 12.11C51.0099 8.23846 47.6879 5.09998 43.5899 5.09998C39.492 5.09998 36.1699 8.23846 36.1699 12.11C36.1699 15.9815 39.492 19.12 43.5899 19.12Z" fill="white"/>
<path d="M67.6399 33.33H68.5899V32.13C68.5899 30.88 68.7499 29.89 69.0699 29.15C69.3899 28.41 69.9199 27.88 70.6799 27.54C71.4399 27.2 72.4699 27.03 73.7899 27.03C76.1199 27.03 77.2899 27.6 77.2899 28.74C77.2899 29.11 77.1699 29.43 76.9199 29.69C76.6699 29.95 76.3899 30.09 76.0599 30.09C75.8999 30.09 75.6399 30.06 75.2499 30C74.8599 29.94 74.5499 29.91 74.2799 29.91C73.5599 29.91 73.0899 30.12 72.8899 30.55C72.6899 30.98 72.5799 31.58 72.5799 32.37V33.32H73.5599C75.0799 33.32 75.8499 33.78 75.8499 34.7C75.8499 35.35 75.6499 35.77 75.2399 35.95C74.8299 36.13 74.2799 36.21 73.5599 36.21H72.5799V46.8C72.5799 47.59 72.3899 48.19 72.0199 48.61C71.6399 49.02 71.1599 49.23 70.5599 49.23C69.9599 49.23 69.5199 49.02 69.1499 48.61C68.7699 48.19 68.5899 47.59 68.5899 46.8V36.21H67.4899C66.8899 36.21 66.4399 36.08 66.1099 35.81C65.7799 35.54 65.6299 35.19 65.6299 34.76C65.6299 33.8 66.2999 33.32 67.6399 33.32V33.33Z" fill="white"/>
<path d="M87.6599 46.98C86.6899 47.73 85.7599 48.3 84.8499 48.67C83.9499 49.05 82.9299 49.23 81.8099 49.23C80.7799 49.23 79.8799 49.03 79.1099 48.62C78.3299 48.22 77.7399 47.67 77.3199 46.97C76.8999 46.27 76.6899 45.52 76.6899 44.71C76.6899 43.62 77.0399 42.68 77.7299 41.91C78.4199 41.14 79.3799 40.62 80.5899 40.36C80.8399 40.3 81.4699 40.17 82.4799 39.96C83.4899 39.75 84.3499 39.57 85.0599 39.4C85.7799 39.23 86.5599 39.02 87.3999 38.78C87.3499 37.73 87.1399 36.95 86.7599 36.46C86.3799 35.97 85.6099 35.72 84.4199 35.72C83.3999 35.72 82.6399 35.86 82.1299 36.14C81.6199 36.42 81.1799 36.85 80.8099 37.41C80.4399 37.98 80.1899 38.35 80.0299 38.53C79.8799 38.71 79.5499 38.8 79.0599 38.8C78.6099 38.8 78.2199 38.66 77.8999 38.37C77.5699 38.08 77.4099 37.71 77.4099 37.26C77.4099 36.56 77.6599 35.87 78.1599 35.21C78.6599 34.55 79.4299 34 80.4899 33.57C81.5499 33.14 82.8599 32.93 84.4299 32.93C86.1899 32.93 87.5699 33.14 88.5799 33.55C89.5899 33.96 90.2999 34.62 90.7099 35.52C91.1199 36.42 91.3299 37.61 91.3299 39.09V41.48C91.3299 42.13 91.3199 42.86 91.3099 43.66C91.3099 44.41 91.4299 45.2 91.6799 46.01C91.9299 46.83 92.0499 47.35 92.0499 47.58C92.0499 47.99 91.8599 48.36 91.4699 48.7C91.0799 49.04 90.6499 49.2 90.1599 49.2C89.7499 49.2 89.3399 49.01 88.9399 48.62C88.5399 48.24 88.1099 47.68 87.6699 46.94V46.98H87.6599ZM87.3999 41.19C86.8099 41.4 85.9599 41.63 84.8399 41.87C83.7199 42.11 82.9499 42.29 82.5199 42.4C82.0899 42.51 81.6799 42.73 81.2899 43.06C80.8999 43.39 80.6999 43.84 80.6999 44.43C80.6999 45.02 80.9299 45.55 81.3899 45.98C81.8499 46.4 82.4499 46.62 83.1899 46.62C83.9799 46.62 84.7099 46.45 85.3799 46.1C86.0499 45.75 86.5399 45.31 86.8499 44.76C87.2099 44.15 87.3899 43.16 87.3899 41.77V41.2L87.3999 41.19Z" fill="white"/>
<path d="M108.68 41.4V46.72C108.68 47.56 108.49 48.19 108.11 48.61C107.73 49.03 107.23 49.24 106.6 49.24C105.97 49.24 105.5 49.03 105.13 48.61C104.75 48.19 104.57 47.56 104.57 46.72V40.35C104.57 39.34 104.54 38.56 104.47 38.01C104.4 37.46 104.22 37 103.91 36.64C103.61 36.28 103.13 36.1 102.47 36.1C101.16 36.1 100.3 36.55 99.8899 37.45C99.4699 38.35 99.2699 39.64 99.2699 41.32V46.73C99.2699 47.56 99.0799 48.19 98.7099 48.61C98.3299 49.04 97.8399 49.25 97.2199 49.25C96.5999 49.25 96.1199 49.04 95.7299 48.61C95.3399 48.19 95.1499 47.56 95.1499 46.73V35.29C95.1499 34.54 95.3199 33.97 95.6699 33.58C96.0199 33.19 96.4699 32.99 97.0399 32.99C97.6099 32.99 98.0399 33.17 98.4099 33.54C98.7799 33.91 98.9599 34.41 98.9599 35.06V35.44C99.6499 34.61 100.4 34 101.19 33.61C101.98 33.22 102.86 33.02 103.83 33.02C104.8 33.02 105.7 33.22 106.42 33.62C107.14 34.02 107.74 34.63 108.21 35.44C108.88 34.62 109.61 34.01 110.38 33.62C111.15 33.23 112.01 33.03 112.94 33.03C114.03 33.03 114.98 33.24 115.77 33.67C116.56 34.1 117.15 34.71 117.54 35.52C117.88 36.24 118.05 37.38 118.05 38.93V46.74C118.05 47.58 117.86 48.21 117.48 48.63C117.1 49.05 116.6 49.26 115.97 49.26C115.34 49.26 114.87 49.05 114.48 48.62C114.09 48.2 113.9 47.57 113.9 46.74V40.02C113.9 39.16 113.86 38.47 113.79 37.95C113.72 37.43 113.52 37 113.2 36.65C112.88 36.3 112.39 36.12 111.74 36.12C111.21 36.12 110.71 36.28 110.24 36.59C109.77 36.9 109.4 37.32 109.13 37.85C108.84 38.52 108.69 39.72 108.69 41.42V41.4H108.68Z" fill="white"/>
<path d="M123.94 31.11C123.38 31.11 122.91 30.94 122.51 30.6C122.12 30.26 121.92 29.77 121.92 29.15C121.92 28.58 122.12 28.12 122.53 27.75C122.93 27.38 123.41 27.2 123.94 27.2C124.47 27.2 124.92 27.37 125.32 27.7C125.72 28.03 125.92 28.52 125.92 29.15C125.92 29.78 125.72 30.25 125.33 30.59C124.94 30.93 124.48 31.11 123.94 31.11ZM125.92 35.24V46.8C125.92 47.6 125.73 48.21 125.35 48.62C124.97 49.03 124.49 49.24 123.9 49.24C123.31 49.24 122.84 49.03 122.47 48.61C122.1 48.19 121.92 47.59 121.92 46.81V35.37C121.92 34.58 122.1 33.98 122.47 33.58C122.84 33.18 123.31 32.98 123.9 32.98C124.49 32.98 124.97 33.18 125.35 33.58C125.73 33.98 125.92 34.54 125.92 35.25V35.24Z" fill="white"/>
<path d="M130.05 46.8V29.46C130.05 28.66 130.23 28.05 130.58 27.64C130.93 27.23 131.42 27.02 132.02 27.02C132.62 27.02 133.11 27.22 133.48 27.63C133.85 28.04 134.04 28.64 134.04 29.45V46.79C134.04 47.6 133.85 48.21 133.48 48.61C133.1 49.02 132.62 49.22 132.02 49.22C131.42 49.22 130.96 49.01 130.59 48.59C130.22 48.17 130.04 47.57 130.04 46.79L130.05 46.8Z" fill="white"/>
<path d="M140.2 31.11C139.64 31.11 139.17 30.94 138.77 30.6C138.38 30.26 138.18 29.77 138.18 29.15C138.18 28.58 138.38 28.12 138.79 27.75C139.19 27.38 139.67 27.2 140.2 27.2C140.73 27.2 141.18 27.37 141.58 27.7C141.98 28.03 142.18 28.52 142.18 29.15C142.18 29.78 141.98 30.25 141.59 30.59C141.2 30.93 140.74 31.11 140.2 31.11ZM142.18 35.24V46.8C142.18 47.6 141.99 48.21 141.61 48.62C141.23 49.03 140.75 49.24 140.16 49.24C139.57 49.24 139.1 49.03 138.73 48.61C138.36 48.19 138.18 47.59 138.18 46.81V35.37C138.18 34.58 138.36 33.98 138.73 33.58C139.1 33.18 139.57 32.98 140.16 32.98C140.75 32.98 141.23 33.18 141.61 33.58C141.99 33.98 142.18 34.54 142.18 35.25V35.24Z" fill="white"/>
<path d="M156.42 46.98C155.45 47.73 154.52 48.3 153.61 48.67C152.71 49.05 151.69 49.23 150.57 49.23C149.54 49.23 148.64 49.03 147.87 48.62C147.09 48.22 146.5 47.67 146.08 46.97C145.66 46.27 145.45 45.52 145.45 44.71C145.45 43.62 145.8 42.68 146.49 41.91C147.18 41.14 148.14 40.62 149.35 40.36C149.6 40.3 150.23 40.17 151.24 39.96C152.25 39.75 153.11 39.57 153.82 39.4C154.54 39.23 155.32 39.02 156.16 38.78C156.11 37.73 155.9 36.95 155.52 36.46C155.14 35.97 154.37 35.72 153.18 35.72C152.16 35.72 151.4 35.86 150.89 36.14C150.38 36.42 149.94 36.85 149.57 37.41C149.2 37.98 148.95 38.35 148.79 38.53C148.64 38.71 148.31 38.8 147.82 38.8C147.37 38.8 146.98 38.66 146.66 38.37C146.33 38.08 146.17 37.71 146.17 37.26C146.17 36.56 146.42 35.87 146.92 35.21C147.42 34.55 148.19 34 149.25 33.57C150.31 33.14 151.62 32.93 153.19 32.93C154.95 32.93 156.33 33.14 157.34 33.55C158.35 33.96 159.06 34.62 159.47 35.52C159.88 36.42 160.09 37.61 160.09 39.09V41.48C160.09 42.13 160.09 42.86 160.07 43.66C160.07 44.41 160.19 45.2 160.44 46.01C160.69 46.83 160.81 47.35 160.81 47.58C160.81 47.99 160.62 48.36 160.23 48.7C159.84 49.04 159.41 49.2 158.92 49.2C158.51 49.2 158.1 49.01 157.7 48.62C157.3 48.24 156.87 47.68 156.43 46.94V46.98H156.42ZM156.16 41.19C155.57 41.4 154.72 41.63 153.6 41.87C152.48 42.11 151.71 42.29 151.28 42.4C150.85 42.51 150.44 42.73 150.05 43.06C149.66 43.39 149.46 43.84 149.46 44.43C149.46 45.02 149.69 45.55 150.15 45.98C150.61 46.4 151.21 46.62 151.95 46.62C152.74 46.62 153.47 46.45 154.14 46.1C154.81 45.75 155.3 45.31 155.61 44.76C155.97 44.15 156.15 43.16 156.15 41.77V41.2L156.16 41.19Z" fill="white"/>
<path d="M168.11 43.46V46.8C168.11 47.61 167.92 48.22 167.54 48.62C167.16 49.03 166.68 49.23 166.09 49.23C165.5 49.23 165.04 49.02 164.67 48.61C164.3 48.2 164.11 47.59 164.11 46.79V35.66C164.11 33.86 164.76 32.96 166.06 32.96C166.72 32.96 167.2 33.17 167.5 33.59C167.8 34.01 167.95 34.63 167.98 35.45C168.46 34.63 168.95 34.01 169.45 33.59C169.95 33.17 170.62 32.96 171.46 32.96C172.3 32.96 173.12 33.17 173.91 33.59C174.7 34.01 175.1 34.57 175.1 35.26C175.1 35.75 174.93 36.15 174.6 36.47C174.26 36.79 173.9 36.95 173.51 36.95C173.36 36.95 173.01 36.86 172.45 36.68C171.89 36.5 171.39 36.41 170.96 36.41C170.37 36.41 169.9 36.56 169.52 36.87C169.15 37.18 168.86 37.63 168.66 38.24C168.46 38.85 168.31 39.57 168.24 40.4C168.16 41.23 168.12 42.25 168.12 43.45L168.11 43.46Z" fill="white"/>
</svg>
