<?xml version="1.0" encoding="UTF-8"?>
<svg id="Layer_1" data-name="Layer 1" xmlns="http://www.w3.org/2000/svg" viewBox="0 0 176.79 74.29">
  <defs>
    <style>
      .cls-1 {
        fill: #2a6d8c;
      }

      .cls-2 {
        fill: #e05326;
      }
    </style>
  </defs>
  <g>
    <path class="cls-2" d="M30.79,68.5s-.08-10.95.36-12.54c0,0,1.07-6.63,4.65-9.9,0,0,5.72-5.12,7.95-6.18,0,0,1.6-1.51.63,3.27,0,0-1.52,3.89-3.13,4.95,0,0-2.5,2.65-2.85,3.36,0,0,3.84-1.15,6.33-4.51,0,0,3.13-4.06,4.29-8.75,0,0,.27-4.15-1.7-7.95,0,0,5.8,2.12,4.73,12.81,0,0-.08,8.57-8.57,15.11,0,0-8.84,6.44-12.68,10.33h0Z"/>
    <path class="cls-1" d="M27.93,68.57s.08-10.95-.36-12.54c0,0-1.07-6.63-4.65-9.9,0,0-5.72-5.12-7.95-6.18,0,0-1.6-1.51-.63,3.27,0,0,1.52,3.89,3.13,4.95,0,0,2.5,2.65,2.85,3.36,0,0-3.84-1.15-6.33-4.51,0,0-3.13-4.06-4.29-8.75,0,0-.27-4.15,1.7-7.95,0,0-5.8,2.12-4.73,12.81,0,0,.08,8.57,8.57,15.11,0,0,8.84,6.44,12.68,10.33h0Z"/>
    <path class="cls-1" d="M4.58,47.13s-2.15-10.47,1.7-15.59c0,0,4.38-6.6,12.02-6.08,0,0,8.69.52,10.84,4.01,0,0-1.76-7.95-12.54-9.19,0,0-8.69-1.35-13.98,7.76,0,0-4.29,9.42,1.96,19.07h0Z"/>
    <path class="cls-2" d="M54.89,47.05s2.15-10.47-1.7-15.59c0,0-4.38-6.6-12.02-6.08,0,0-8.69.52-10.84,4.01,0,0,1.76-7.95,12.54-9.19,0,0,8.69-1.35,13.98,7.76,0,0,4.29,9.42-1.96,19.07h0Z"/>
    <rect class="cls-1" x="24.74" y="31.74" width="4.82" height="4.77"/>
    <rect class="cls-1" x="30.38" y="31.75" width="4.82" height="4.77"/>
    <rect class="cls-1" x="24.77" y="37.42" width="4.82" height="4.77"/>
    <rect class="cls-1" x="30.44" y="37.42" width="4.82" height="4.77"/>
    <ellipse class="cls-1" cx="16.02" cy="12.3" rx="7.42" ry="7.01"/>
    <ellipse class="cls-2" cx="43.59" cy="12.11" rx="7.42" ry="7.01"/>
  </g>
  <g>
    <path class="cls-1" d="M67.64,33.33h.95v-1.2c0-1.25.16-2.24.48-2.98.32-.74.85-1.27,1.61-1.61.76-.34,1.79-.51,3.11-.51,2.33,0,3.5.57,3.5,1.71,0,.37-.12.69-.37.95s-.53.4-.86.4c-.16,0-.42-.03-.81-.09s-.7-.09-.97-.09c-.72,0-1.19.21-1.39.64s-.31,1.03-.31,1.82v.95h.98c1.52,0,2.29.46,2.29,1.38,0,.65-.2,1.07-.61,1.25s-.96.26-1.68.26h-.98v10.59c0,.79-.19,1.39-.56,1.81-.38.41-.86.62-1.46.62s-1.04-.21-1.41-.62c-.38-.42-.56-1.02-.56-1.81v-10.59h-1.1c-.6,0-1.05-.13-1.38-.4s-.48-.62-.48-1.05c0-.96.67-1.44,2.01-1.44h0Z"/>
    <path class="cls-1" d="M87.66,46.98c-.97.75-1.9,1.32-2.81,1.69-.9.38-1.92.56-3.04.56-1.03,0-1.93-.2-2.7-.61-.78-.4-1.37-.95-1.79-1.65s-.63-1.45-.63-2.26c0-1.09.35-2.03,1.04-2.8s1.65-1.29,2.86-1.55c.25-.06.88-.19,1.89-.4s1.87-.39,2.58-.56c.72-.17,1.5-.38,2.34-.62-.05-1.05-.26-1.83-.64-2.32s-1.15-.74-2.34-.74c-1.02,0-1.78.14-2.29.42s-.95.71-1.32,1.27c-.37.57-.62.94-.78,1.12-.15.18-.48.27-.97.27-.45,0-.84-.14-1.16-.43-.33-.29-.49-.66-.49-1.11,0-.7.25-1.39.75-2.05s1.27-1.21,2.33-1.64,2.37-.64,3.94-.64c1.76,0,3.14.21,4.15.62s1.72,1.07,2.13,1.97c.41.9.62,2.09.62,3.57v2.39c0,.65-.01,1.38-.02,2.18,0,.75.12,1.54.37,2.35.25.82.37,1.34.37,1.57,0,.41-.19.78-.58,1.12-.39.34-.82.5-1.31.5-.41,0-.82-.19-1.22-.58-.4-.38-.83-.94-1.27-1.68v.04ZM87.4,41.19c-.59.21-1.44.44-2.56.68-1.12.24-1.89.42-2.32.53s-.84.33-1.23.66c-.39.33-.59.78-.59,1.37s.23,1.12.69,1.55c.46.42,1.06.64,1.8.64.79,0,1.52-.17,2.19-.52s1.16-.79,1.47-1.34c.36-.61.54-1.6.54-2.99v-.57h0Z"/>
    <path class="cls-1" d="M108.68,41.4v5.32c0,.84-.19,1.47-.57,1.89s-.88.63-1.51.63-1.1-.21-1.47-.63c-.38-.42-.56-1.05-.56-1.89v-6.37c0-1.01-.03-1.79-.1-2.34s-.25-1.01-.56-1.37c-.3-.36-.78-.54-1.44-.54-1.31,0-2.17.45-2.58,1.35-.42.9-.62,2.19-.62,3.87v5.41c0,.83-.19,1.46-.56,1.88-.38.43-.87.64-1.49.64s-1.1-.21-1.49-.64c-.39-.42-.58-1.05-.58-1.88v-11.44c0-.75.17-1.32.52-1.71s.8-.59,1.37-.59,1,.18,1.37.55.55.87.55,1.52v.38c.69-.83,1.44-1.44,2.23-1.83s1.67-.59,2.64-.59,1.87.2,2.59.6,1.32,1.01,1.79,1.82c.67-.82,1.4-1.43,2.17-1.82s1.63-.59,2.56-.59c1.09,0,2.04.21,2.83.64s1.38,1.04,1.77,1.85c.34.72.51,1.86.51,3.41v7.81c0,.84-.19,1.47-.57,1.89s-.88.63-1.51.63-1.1-.21-1.49-.64c-.39-.42-.58-1.05-.58-1.88v-6.72c0-.86-.04-1.55-.11-2.07s-.27-.95-.59-1.3-.81-.53-1.46-.53c-.53,0-1.03.16-1.5.47s-.84.73-1.11,1.26c-.29.67-.44,1.87-.44,3.57v-.02Z"/>
    <path class="cls-2" d="M123.94,31.11c-.56,0-1.03-.17-1.43-.51-.39-.34-.59-.83-.59-1.45,0-.57.2-1.03.61-1.4.4-.37.88-.55,1.41-.55s.98.17,1.38.5.6.82.6,1.45-.2,1.1-.59,1.44-.85.52-1.39.52h0ZM125.92,35.24v11.56c0,.8-.19,1.41-.57,1.82s-.86.62-1.45.62-1.06-.21-1.43-.63-.55-1.02-.55-1.8v-11.44c0-.79.18-1.39.55-1.79.37-.4.84-.6,1.43-.6s1.07.2,1.45.6.57.96.57,1.67h0Z"/>
    <path class="cls-1" d="M130.05,46.8v-17.34c0-.8.18-1.41.53-1.82s.84-.62,1.44-.62,1.09.2,1.46.61.56,1.01.56,1.82v17.34c0,.81-.19,1.42-.56,1.82-.38.41-.86.61-1.46.61s-1.06-.21-1.43-.63-.55-1.02-.55-1.8h0Z"/>
    <path class="cls-2" d="M140.2,31.11c-.56,0-1.03-.17-1.43-.51-.39-.34-.59-.83-.59-1.45,0-.57.2-1.03.61-1.4.4-.37.88-.55,1.41-.55s.98.17,1.38.5.6.82.6,1.45-.2,1.1-.59,1.44-.85.52-1.39.52h0ZM142.18,35.24v11.56c0,.8-.19,1.41-.57,1.82s-.86.62-1.45.62-1.06-.21-1.43-.63-.55-1.02-.55-1.8v-11.44c0-.79.18-1.39.55-1.79.37-.4.84-.6,1.43-.6s1.07.2,1.45.6.57.96.57,1.67h0Z"/>
    <path class="cls-1" d="M156.42,46.98c-.97.75-1.9,1.32-2.81,1.69-.9.38-1.92.56-3.04.56-1.03,0-1.93-.2-2.7-.61-.78-.4-1.37-.95-1.79-1.65s-.63-1.45-.63-2.26c0-1.09.35-2.03,1.04-2.8s1.65-1.29,2.86-1.55c.25-.06.88-.19,1.89-.4s1.87-.39,2.58-.56c.72-.17,1.5-.38,2.34-.62-.05-1.05-.26-1.83-.64-2.32s-1.15-.74-2.34-.74c-1.02,0-1.78.14-2.29.42s-.95.71-1.32,1.27c-.37.57-.62.94-.78,1.12-.15.18-.48.27-.97.27-.45,0-.84-.14-1.16-.43-.33-.29-.49-.66-.49-1.11,0-.7.25-1.39.75-2.05s1.27-1.21,2.33-1.64,2.37-.64,3.94-.64c1.76,0,3.14.21,4.15.62s1.72,1.07,2.13,1.97.62,2.09.62,3.57v2.39c0,.65,0,1.38-.02,2.18,0,.75.12,1.54.37,2.35.25.82.37,1.34.37,1.57,0,.41-.19.78-.58,1.12-.39.34-.82.5-1.31.5-.41,0-.82-.19-1.22-.58-.4-.38-.83-.94-1.27-1.68v.04ZM156.16,41.19c-.59.21-1.44.44-2.56.68s-1.89.42-2.32.53-.84.33-1.23.66-.59.78-.59,1.37.23,1.12.69,1.55c.46.42,1.06.64,1.8.64.79,0,1.52-.17,2.19-.52s1.16-.79,1.47-1.34c.36-.61.54-1.6.54-2.99v-.57h0Z"/>
    <path class="cls-1" d="M168.11,43.46v3.34c0,.81-.19,1.42-.57,1.82-.38.41-.86.61-1.45.61s-1.05-.21-1.42-.62-.56-1.02-.56-1.82v-11.13c0-1.8.65-2.7,1.95-2.7.66,0,1.14.21,1.44.63s.45,1.04.48,1.86c.48-.82.97-1.44,1.47-1.86s1.17-.63,2.01-.63,1.66.21,2.45.63,1.19.98,1.19,1.67c0,.49-.17.89-.5,1.21-.34.32-.7.48-1.09.48-.15,0-.5-.09-1.06-.27s-1.06-.27-1.49-.27c-.59,0-1.06.15-1.44.46-.37.31-.66.76-.86,1.37s-.35,1.33-.42,2.16c-.08.83-.12,1.85-.12,3.05h0Z"/>
  </g>
</svg>